<?xml version="1.0" encoding="utf-8"?>
<!-- Generator: Adobe Illustrator 25.4.1, SVG Export Plug-In . SVG Version: 6.00 Build 0)  -->
<svg version="1.1" id="Layer_1" xmlns="http://www.w3.org/2000/svg" xmlns:xlink="http://www.w3.org/1999/xlink" x="0px" y="0px"
	 viewBox="0 0 226.8 154" style="enable-background:new 0 0 226.8 154;" xml:space="preserve">
<style type="text/css">
	.st0{display:none;fill:#FEFEFE;}
	.st1{fill:#4A81C1;}
	.st2{fill:#4D83C2;}
	.st3{fill:#4B81C2;}
	.st4{fill:#4C82C2;}
</style>
<g>
	<path class="st0" d="M226.8,52.9c0,33.1,0,66.3,0.1,99.4c0,3-0.6,3.6-3.6,3.6c-74.6-0.1-149.2-0.1-223.8,0c-3,0-3.6-0.6-3.6-3.6
		C-4,101.5-4,50.7-4-0.1c52.6,0,105.3,0,157.9,0c0.3,1.7-1.1,1.9-2.1,2.2c-9.6,3.3-14.1,10.6-15.6,16.9c1.1-5.8,8.4-12.9,17.2-13.1
		c5.2-0.1,8.9-1.6,11.5-6c19.7,0,39.3,0.1,59-0.1c2.5,0,3.1,0.6,3.1,3.1c-0.1,15.3-0.1,30.6-0.1,46c-1.2,1.5-3,2-4.8,2.5
		c-7.4,1.9-14.9,3.6-22.2,5.7c-2.3,0.6-4.4,0.6-5.9-1.4c-4.5-6.1-11.1-9.4-17.5-12.9c-5.5-3-11-6.2-17.1-10.2
		c1.8,3.4,3.8,5.4,6.1,7.3c6.1,4.9,12.5,9.5,17.8,15.2c1.7,1.8,3.4,3.7,4.7,5.8c3.3,5.5,2.8,10.8-1.4,15.6
		c-4.6,5.1-10.5,8.2-16.7,10.7c-9.3,3.7-18.6,7.6-26.7,8.8c4.1-1,10.2-1.5,16.4-2.4c9.6-1.4,18.9-3.9,27.4-8.8
		c6.4-3.6,11-8.6,11.7-16.3c0.1-1,0.2-2.2,1-2.8c5.4-4,11.5-6.6,18-7.9c2.4-0.5,2.4,2.4,2.3,4.1c-0.1,6.5-3.3,11.7-7.4,16.5
		c-1.2,1.4-2.6,2.6-4,3.8c-1.4,1.2-1.6,2.6-0.3,3.9c1.6,1.7,2.7,0.3,3.7-0.7c6.4-6.7,9.7-15,11.7-23.9c0.6-2.6,0.5-5.3,1.5-7.8
		C225.5,53,226.1,52.7,226.8,52.9z"/>
	<path class="st1" d="M226.8,52.9c-1.7,6.9-2.5,14-5.5,20.6c-2.3,5-5.2,9.7-9,13.7c-1.5,1.6-2.9,3.6-4.8,0.4c-1.1-2-4.4-3.4-0.3-6.1
		c6.7-4.4,10.7-10.8,11.8-18.9c0.5-3.3,0.1-5.4-3.9-3.1c-1.7,1-3.6,1.7-5.5,2.4c-5.2,2-9.8,3.5-10.6,10.9c-0.7,6.9-7,10.9-13.1,14.1
		c-10.5,5.5-21.9,7.7-33.5,9c-4.4,0.5-8.9,1.5-14.3,0.7c10.4-3.2,20.1-5.9,29.4-9.8c6.1-2.6,12.3-5.2,17.1-10
		c5.5-5.3,5.9-10.3,1.5-16.4c-5.1-7-12-11.9-18.6-17.3c-4.2-3.4-8.7-6.7-10.5-12.3c1.5-1.2,2.2,0.3,3,0.8
		c7.1,4.9,14.8,8.8,22.4,13.1c4.7,2.6,9.2,5.5,12.2,10.1c1.4,2.1,2.9,1.6,4.7,1.2c9.2-2.4,18.3-4.7,27.5-7
		C226.8,50.3,226.8,51.6,226.8,52.9z"/>
	<path class="st2" d="M164.9,0c-1.3,4.6-3,7.4-9.1,7.1c-8.7-0.5-14.9,4.7-18.6,12.6c-0.7,1.4-1.2,3-2,5
		c-0.8-10.4,5.5-19.7,15.1-23.2C151.5,0.9,161.2,0,164.9,0z"/>
	<path class="st2" d="M152.9,3.9"/>
	<path class="st1" d="M0,45.1c12.2-5,25-6.9,37.9-7.9c22.9-1.9,45.9-1.8,68.8,0.8c4.1,0.4,7.7,1.6,11,4.2c8.3,6.8,15.9,14.4,22.7,23
		c-5.6-2.8-11.5-5.1-16.7-8.5c-19.9-13-42.1-15.5-65.1-14.5C41.8,43,25,43.9,8.3,44.8C5.4,44.8,2.7,44.9,0,45.1z"/>
	<path class="st1" d="M153,11.9c-1.3,3.7-2.3,6.4-3.2,9.2c-2.6,8.3-0.6,15.4,5.6,21.4c2.2,2.1,4.5,3.9,6.9,5.8
		c6.7,5.5,7.2,12.2,0.9,18.4c-6.2,6.2-14.2,8.4-22.4,9.9c-8.4,1.5-18.1,1.3-25.2-0.6c2.9-1.5,5.6-1.6,8.2-2.1
		c9.1-1.8,18.3-3.8,26.7-7.9c8.8-4.4,9.3-7.9,1.7-14.1c-7.2-5.9-13.1-12.2-12.5-22.5C140.1,20.8,144.8,15.8,153,11.9z"/>
	<path class="st3" d="M132.1,88.5c-1.3,5.8-4.2,9.4-7.3,12.7c-7.4,7.8-16.6,13.2-26.3,17.7c-1.5,0.7-2.9,1.2-3.9,2.8
		c-6.7,10.6-20.8,24.6-32.4,32.3c0-3.1,0-5.7,0-8.4c0-1.2,0.6-1.8,1.8-2c11.8-2,16.9-10.9,20.7-20.8c1.6-4,1.3-9.3,3.9-12.1
		c2.7-2.9,8.1-0.8,12.3-1.8c9.7-2.3,17.5-7.8,24.7-14.3C127.5,92.9,129.4,91,132.1,88.5z"/>
	<path class="st3" d="M39.2,88.7c8.4,7.4,17.2,5.2,25.9,2c8.6-3.2,16.4-8,24.5-12.2c3.7-1.9,7.4-3.8,12.1-3.2
		c-10.1,4.4-15.6,12.1-16.9,23.4c-2.7-2.4-1.4-5.9-3.3-8.3c-7,4.8-14.2,9.3-22.6,11.2C48.9,103.7,40.7,98.7,39.2,88.7z"/>
	<path class="st4" d="M61,13.3c13.6-0.9,26.6,2.5,39.5,6.7c8.2,2.7,16,6.5,24,9.7c11.8,4.8,13.5,15.7,18,25.8
		c-1-0.2-1.2-0.1-1.3-0.2c-8.7-16.2-23.5-24-40.2-29.5C87.8,21.5,74.7,16.7,61,13.3z"/>
	<path class="st2" d="M160,12.8c11.1,12.1,14.7,14.5,27.3,18.4c-3.2,6.7-5,7.3-10.9,3.4C168.9,29.7,162.4,21.2,160,12.8z"/>
</g>
</svg>
